<svg width="24" height="31" fill="none" xmlns="http://www.w3.org/2000/svg"><g clip-path="url(#clip0)" fill="#000"><path d="M17.545 29.462H.88V7.484a.443.443 0 00-.44-.445c-.243 0-.44.2-.44.445V29.61c0 .41.33.743.733.743h16.812c.243 0 .44-.2.44-.446a.443.443 0 00-.44-.445zM23.876 4.03L20.136.135A.438.438 0 0019.82 0H.734a.739.739 0 00-.733.743v3.474c0 .246.197.446.44.446s.44-.2.44-.446V.892h18.753l3.487 3.629v24.942h-2.494c-.243 0-.44.2-.44.445 0 .246.197.446.44.446h2.64a.739.739 0 00.734-.743V4.34a.448.448 0 00-.125-.31z"/><path d="M23.875 4.028L20.135.135a.436.436 0 00-.481-.102.446.446 0 00-.275.413v3.893c0 .246.197.445.44.445h3.741a.44.44 0 00.405-.272.45.45 0 00-.09-.484zm-3.616-.135v-2.35l2.259 2.35h-2.259zm-6.222-1.528H3.433a.739.739 0 00-.733.743V5.57c0 .41.329.743.733.743h10.604a.739.739 0 00.733-.743V3.108a.739.739 0 00-.733-.743zm-.147 3.056H3.58V3.256h10.31v2.166zM7.095 8.644a.437.437 0 00-.616.085l-1.945 2.59-.584-.517a.436.436 0 00-.62.042.45.45 0 00.04.629l.94.831a.437.437 0 00.64-.066l2.23-2.97a.45.45 0 00-.085-.624zm13.245-.091H9.256c-.244 0-.44.2-.44.446s.196.445.44.445H20.34c.243 0 .44-.2.44-.445a.443.443 0 00-.44-.446zm-3.888 1.485H9.256c-.244 0-.44.2-.44.446s.196.445.44.445h7.196c.243 0 .44-.2.44-.445a.443.443 0 00-.44-.446zm1.643 1.485h-8.84c-.243 0-.44.2-.44.446s.197.445.44.445h8.84c.243 0 .44-.2.44-.445a.443.443 0 00-.44-.446zm-11 3.18a.437.437 0 00-.616.085l-1.945 2.59-.584-.517a.436.436 0 00-.62.042.45.45 0 00.04.628l.94.832a.437.437 0 00.64-.066l2.23-2.97a.45.45 0 00-.085-.624zm13.245-.091H9.256c-.244 0-.44.2-.44.446s.196.445.44.445H20.34c.243 0 .44-.2.44-.445a.443.443 0 00-.44-.446zm-3.888 1.485H9.256c-.244 0-.44.2-.44.446s.196.445.44.445h7.196c.243 0 .44-.2.44-.445a.443.443 0 00-.44-.446zm1.643 1.485h-8.84c-.243 0-.44.2-.44.446s.197.445.44.445h8.84c.243 0 .44-.2.44-.445a.443.443 0 00-.44-.446zm2.245 3.089H9.256c-.244 0-.44.2-.44.446s.196.445.44.445H20.34c.243 0 .44-.2.44-.445a.443.443 0 00-.44-.446zm-3.888 1.485H9.256c-.244 0-.44.2-.44.446s.196.445.44.445h7.196c.243 0 .44-.2.44-.445a.443.443 0 00-.44-.446zm1.643 1.485h-8.84c-.243 0-.44.2-.44.446s.197.445.44.445h8.84c.243 0 .44-.2.44-.445a.443.443 0 00-.44-.446zM6.3 20.671H3.955a.739.739 0 00-.734.743v2.376c0 .41.33.742.734.742H6.3a.739.739 0 00.733-.742v-2.376a.739.739 0 00-.733-.743zm-.146 2.97H4.1v-2.079h2.054v2.08z"/></g><defs><clipPath id="clip0"><path fill="#fff" d="M0 0h24v30.353H0z"/></clipPath></defs></svg>