<svg width="24" height="23" fill="none" xmlns="http://www.w3.org/2000/svg"><path d="M23.648 19.142a.353.353 0 00-.351.354v2.364a.06.06 0 01-.06.06h-1.335v-5.17a.353.353 0 00-.352-.355.353.353 0 00-.351.354v5.171h-2.582l.699-.774a.568.568 0 00.136-.454c0-.003 0-.007-.002-.01l-.785-4.672.145-.219.037.027a.546.546 0 00.811-.204l.8-1.613 1.825.712c.072.032 1.013.466 1.013 1.597v1.534c0 .196.158.354.352.354a.353.353 0 00.352-.354V16.31c0-1.633-1.392-2.228-1.451-2.252a.069.069 0 00-.007-.003l-3.109-1.212V12.2a2.59 2.59 0 00.929-1.605 1.222 1.222 0 00.8-1.984v-.955c0-1.869-1.51-3.39-3.367-3.39-.834 0-1.597.308-2.185.815a1.22 1.22 0 00-.272-.737v-.955C15.338 1.52 13.828 0 11.97 0S8.603 1.52 8.603 3.39v.98a1.16 1.16 0 00-.272.708 3.345 3.345 0 00-1.326-.7.354.354 0 00-.18.685A2.68 2.68 0 018.81 7.655v.53c-.015-.004-.064-.012-.066-.013a.41.41 0 00-.084-.239c-.09-.13-.251-.292-.771-.855a.553.553 0 00-.713-.087c-.89.585-1.972.884-2.975.824-.327-.019-.532.126-.619.363a6.028 6.028 0 00-.1.02v-.543c0-1.173.78-2.23 1.895-2.567a.354.354 0 00-.203-.678A3.393 3.393 0 002.78 7.655v.98a1.158 1.158 0 00-.272.746 1.22 1.22 0 001.075 1.213c.103.63.443 1.235.98 1.646v.603l-3.105 1.212-.006.003C1.39 14.083 0 14.678 0 16.31v5.55c0 .424.342.768.762.768H11.59a.753.753 0 00.41-.122c.12.077.26.122.412.122h10.827c.42 0 .762-.344.762-.768v-2.364a.352.352 0 00-.352-.354zm-20.1-9.28a.51.51 0 01-.337-.481c0-.208.15-.38.338-.46v.942zm16.25 3.883l-.69 1.392-.777-.556.863-1.072.605.236zm-1.975.343l-.909-1.13v-.34c.296.104.614.151.914.151.31 0 .623-.06.903-.165v.356l-.908 1.128zm.413 1.293l-.13.196h-.566l-.13-.196.413-.295.413.295zm-6.237-5.56l-.909-1.13v-.339c.294.102.613.15.914.15.31 0 .623-.059.903-.165v.357l-.908 1.127zm.413 1.293l-.13.197h-.566l-.13-.197.413-.295.413.295zM9.23 6.294c.057.015.116.026.176.033.103.631.443 1.236.98 1.647v.603l-.718.28a1.217 1.217 0 00-.155-.247v-.955c0-.48-.1-.942-.283-1.362zm4.636-.375c0 1.036-.84 1.876-1.863 1.876-1.156 0-1.928-.902-1.928-1.876V4.26c1.11.045 2.263-.287 3.206-.877.317.342.506.54.585.633v1.902zm.671.408c.06-.007.118-.018.176-.034a3.388 3.388 0 00-.285 1.362v.98c-.054.065-.1.134-.14.207l-.68-.266v-.644c.486-.393.827-.96.93-1.605zm-3.911 2.916l.863 1.072-.589.421-.187.134-.69-1.392.603-.235zm2.181.698l.562-.699.605.236-.69 1.392-.188-.133-.59-.422.301-.374zm.177 1.584l.038.027a.546.546 0 00.81-.205l.594-1.197c.204.253.499.407.803.445.107.677.47 1.254.98 1.646v.603l-2.988 1.166-.382-2.266.145-.22zm3.466 1.984l.863 1.073-.776.555-.69-1.392.603-.236zm3.24-3.324c0 1.011-.815 1.876-1.863 1.876a1.883 1.883 0 01-1.928-1.876V8.528c1.102.044 2.257-.283 3.206-.878.317.342.506.541.585.634v1.901zm1.042-.804a.51.51 0 01-.338.482V8.9a.51.51 0 01.338.48zm-5.601-1.726a2.676 2.676 0 012.664-2.681 2.676 2.676 0 012.663 2.681v.53l-.066-.013a.409.409 0 00-.084-.239c-.092-.133-.252-.293-.771-.855a.554.554 0 00-.712-.087c-.867.57-1.961.891-3.002.823-.293-.019-.505.125-.593.364a6.19 6.19 0 00-.1.02l.001-.543zm.065 1.265v.942a.51.51 0 01-.338-.481c0-.208.15-.38.338-.46zm-.289-3.806a.51.51 0 01-.338.482v-.963a.51.51 0 01.338.481zM11.972.707a2.676 2.676 0 012.663 2.681v.53a3.506 3.506 0 00-.066-.012.43.43 0 00-.1-.261c-.093-.129-.267-.305-.755-.833a.553.553 0 00-.712-.088c-.915.602-2.025.895-3.03.822a.558.558 0 00-.565.365 6.05 6.05 0 00-.1.02v-.543A2.675 2.675 0 0111.973.707zm-2.6 3.947v.942a.51.51 0 01-.337-.482c0-.207.149-.379.338-.46zM8.747 8.9a.504.504 0 01.336.45.509.509 0 01-.336.512V8.9zm-.032 1.695a1.23 1.23 0 00.835-.488l.615 1.24a.55.55 0 00.811.204l.038-.027.144.22-.381 2.265-2.99-1.166V12.2a2.59 2.59 0 00.928-1.604zm-2.54 3.493l-.908-1.13v-.34c.294.103.612.151.913.151.315 0 .628-.06.903-.165v.357l-.907 1.127zm.414 1.293l-.13.196h-.566l-.13-.196.413-.295.413.295zm.958-1.872l.605.236-.69 1.392-.188-.134-.59-.422.863-1.072zm-3.294-3.324V8.528c1.116.044 2.27-.291 3.206-.878.314.34.505.541.585.634v1.901c0 1.03-.834 1.876-1.864 1.876-1.146 0-1.927-.89-1.927-1.876zm.55 3.324l.864 1.073-.589.42v.002l-.188.133-.69-1.392.604-.236zm-2 8.411v-5.17a.353.353 0 00-.352-.355.353.353 0 00-.352.354v5.171H.762a.06.06 0 01-.059-.06v-5.55c0-1.136.952-1.57 1.013-1.596L3.54 14l.8 1.613a.55.55 0 00.81.204l.038-.027.145.22-.786 4.67-.001.011a.57.57 0 00.136.454l.698.774H2.801zm2.451-1.194L6 16.285h.35l.747 4.441-.922 1.02-.922-1.02zm6.395 1.134a.06.06 0 01-.059.06h-1.336v-5.17a.353.353 0 00-.351-.355.353.353 0 00-.352.354v5.171H6.97l.699-.774a.568.568 0 00.136-.454l-.002-.01-.785-4.672.144-.219.038.027a.547.547 0 00.81-.204L8.81 14l1.825.712a1.758 1.758 0 011.014 1.597v5.55zM12 15.024a2.512 2.512 0 00-.573-.641l.397-2.365h.35l.398 2.366c-.24.192-.432.412-.572.64zm2.45 6.896v-5.17a.353.353 0 00-.352-.355.353.353 0 00-.351.354v5.171H12.41a.06.06 0 01-.06-.06v-5.55c0-.42.132-.808.411-1.133a1.86 1.86 0 01.603-.463L15.189 14l.8 1.613a.55.55 0 00.81.204l.038-.027.145.22-.786 4.67-.002.011a.569.569 0 00.137.454l.698.774h-2.58zm2.452-1.194l.746-4.44h.35l.747 4.44-.922 1.021-.921-1.02z" fill="#000"/></svg>