<svg width="24" height="24" fill="none" xmlns="http://www.w3.org/2000/svg"><g clip-path="url(#clip0)" fill="#000"><path d="M11.075 16.278a.469.469 0 10-.663-.663.469.469 0 00.663.663zM8.85 5.155c0 2.842 2.318 5.155 5.166 5.155 2.848 0 5.165-2.313 5.165-5.155a5.166 5.166 0 00-10.331 0zm9.392 0a4.227 4.227 0 01-8.452 0 4.226 4.226 0 018.452 0z"/><path d="M5.432 23.861a.47.47 0 00.663.004l2.276-2.238c.387-.386.504-.957.334-1.454l.49-.471c.264-.255.61-.395.978-.395h6.242a4.209 4.209 0 002.947-1.195c.033-.031-.248.298 4.259-5.077a1.874 1.874 0 00-.223-2.642 1.885 1.885 0 00-2.635.21l-2.771 2.841a1.889 1.889 0 00-1.46-.697h-5.236a6.068 6.068 0 00-2.351-.469c-2.261 0-4.235 1.042-5.295 2.996a1.404 1.404 0 00-1.256.389L.161 17.899a.468.468 0 00-.001.66l5.272 5.302zm3.513-10.646c.719 0 1.414.145 2.067.43a.47.47 0 00.188.039h5.332c.51 0 .94.414.94.937a.94.94 0 01-.94.937h-3.83a.47.47 0 100 .937h3.83a1.878 1.878 0 001.862-2.119c2.68-2.75 3.058-3.136 3.074-3.155a.938.938 0 111.434 1.211l-4.212 5.024a3.272 3.272 0 01-2.275.914h-6.242c-.612 0-1.191.233-1.63.657l-.4.384-3.678-3.67c.86-1.61 2.473-2.526 4.48-2.526zm-5.886 3.11a.47.47 0 01.581-.066c.082.05-.152-.163 4.067 4.042a.469.469 0 01.003.66L5.769 22.87l-4.614-4.64 1.904-1.905zM13.452 2.343v.55a1.408 1.408 0 00-.939 1.325 1.41 1.41 0 001.409 1.406.47.47 0 010 .937c-.2 0-.417-.126-.61-.355a.47.47 0 00-.719.603c.251.298.546.506.86.61v.548a.469.469 0 00.938 0v-.55c.547-.193.94-.714.94-1.325a1.41 1.41 0 00-1.41-1.406.47.47 0 010-.937c.167 0 .343.085.509.245a.468.468 0 10.653-.673 1.816 1.816 0 00-.692-.432v-.546a.47.47 0 00-.939 0z"/></g><defs><clipPath id="clip0"><path fill="#fff" d="M0 0h24v24H0z"/></clipPath></defs></svg>