<svg width="24" height="24" fill="none" xmlns="http://www.w3.org/2000/svg"><path d="M8.25 2.813a.469.469 0 100-.938.469.469 0 000 .938zM5.156 9.656a.469.469 0 100-.938.469.469 0 000 .938zm17.438-2.812h-.469v-.938a1.86 1.86 0 00-.469-1.239V3.563c0-.776-.63-1.407-1.406-1.407-.776 0-1.406.631-1.406 1.406v1.106c-.3.34-.469.78-.469 1.238v12.938c0 2.339 1.34 3.783 1.406 3.906v.781a.469.469 0 00.938 0v-.781c.066-.122 1.406-1.555 1.406-3.906V7.78h.469a.47.47 0 01.468.469V12A.469.469 0 1024 12V8.25c0-.775-.63-1.406-1.406-1.406zm-3.282-.938a.938.938 0 011.875 0v.938h-1.875v-.938zm.938-2.812a.47.47 0 01.469.469v.528a1.867 1.867 0 00-.938 0v-.529a.47.47 0 01.469-.468zm0 18.714a5.197 5.197 0 01-.916-2.496h1.832a5.197 5.197 0 01-.916 2.496zm.938-3.433h-1.875V7.781h1.875v10.594z" fill="#000"/><path d="M15.094 24c.775 0 1.406-.63 1.406-1.406V5.156c0-.775-.63-1.406-1.406-1.406h-2.425a1.408 1.408 0 00-1.325-.938h-.8c.033-.153.05-.31.05-.468A2.346 2.346 0 008.25 0a2.346 2.346 0 00-2.295 2.813h-.799c-.61 0-1.132.391-1.325.937H1.406C.631 3.75 0 4.38 0 5.156v17.438C0 23.369.63 24 1.406 24h13.688zm-1.406-4.962v2.15h-2.15l2.15-2.15zm-2.813 1.486v-2.149h2.15l-2.15 2.15zm2.813-3.087h-3.282a.469.469 0 00-.469.47v3.28H2.814V6.563h10.874v10.875zM5.155 3.75h1.48a.469.469 0 00.405-.705 1.382 1.382 0 01-.197-.701 1.407 1.407 0 012.812 0c0 .24-.066.477-.197.701a.469.469 0 00.405.705h1.48a.47.47 0 01.469.469v1.406H4.686V4.22a.47.47 0 01.47-.469zM.938 22.594V5.156a.47.47 0 01.468-.468H3.75v.937H2.344a.469.469 0 00-.469.469v15.562c0 .26.21.469.469.469h11.812c.26 0 .469-.21.469-.469V6.094a.469.469 0 00-.469-.469H12.75v-.938h2.344a.47.47 0 01.469.47v17.437a.47.47 0 01-.47.468H1.407a.47.47 0 01-.468-.468z" fill="#000"/><path d="M11.344 8.719H7.03a.469.469 0 100 .937h4.313a.469.469 0 000-.937zm0 4.969H5.156a.469.469 0 000 .937h6.188a.469.469 0 000-.938zm0 1.875H5.156a.469.469 0 000 .937h6.188a.469.469 0 000-.938zm0-3.75H5.156a.469.469 0 000 .937h6.188a.469.469 0 000-.938z" fill="#000"/></svg>