<svg width="24" height="22" fill="none" xmlns="http://www.w3.org/2000/svg"><path d="M23.996 7.18c-.04-.675-.854-1.203-2.482-1.605a.878.878 0 00.086-.369V2.448h-.007C21.45.15 11.897.083 10.8.083 9.703.083.15.15.007 2.448H0v2.759c.002.75.983 1.336 2.442 1.772a.853.853 0 00-.036.2H2.4v2.755c-1.572.399-2.357.918-2.396 1.582H0v2.759c.001.522.478.964 1.26 1.333a.858.858 0 00-.054.245H1.2v2.759c.003 1.312 2.999 2.126 6.327 2.506.025.005.047.014.073.014.008 0 .014-.004.022-.004.641.071 1.293.127 1.938.167.014.001.026.008.04.008.008 0 .014-.004.02-.005.82.05 1.626.074 2.38.074s1.56-.025 2.38-.074c.006 0 .013.004.02.004.014 0 .026-.006.04-.008a39.34 39.34 0 001.938-.166c.008 0 .014.003.022.003.026 0 .048-.01.073-.014 3.328-.38 6.323-1.195 6.327-2.506v-2.759h-.006c-.028-.483-.446-.886-1.272-1.223a.87.87 0 00.078-.355v-2.577c1.436-.435 2.398-1.017 2.4-1.76V7.18h-.004zm-3.24 7.222l-.136.118c-.21.183-.56.367-1.02.544v-1.88a6 6 0 001.2-.542v1.631c0 .04-.015.084-.043.13zm-8.946 1.832l-.176.004-.434.004v-1.969l.33-.005h.064c.403-.008.806-.02 1.206-.039v1.969l-.258.012c-.24.01-.484.018-.732.024zm-1.746.006a44.373 44.373 0 01-.547-.013l-.067-.003a42.27 42.27 0 01-.65-.026V14.23c.401.018.804.03 1.207.038h.063c.11.003.22.004.33.005v1.971c-.078 0-.155 0-.232-.002l-.104-.002zm-7.225-.9a1.128 1.128 0 00-.039-.01v-1.905c.374.1.775.19 1.2.272v1.925a18.837 18.837 0 01-1.014-.24l-.147-.041zm8.431 3.265c.11.003.22.004.33.005v1.971a41.028 41.028 0 01-1.6-.046v-1.968c.4.018.804.03 1.206.038h.064zm1.524 0c.402-.008.805-.02 1.206-.038v1.968c-.514.025-1.047.04-1.6.046V18.61a45.39 45.39 0 00.394-.006zm3.206-.18v1.958c-.384.04-.784.075-1.2.104v-1.966c.406-.026.806-.058 1.2-.096zm.8-.085c.412-.049.813-.105 1.2-.166v1.935a28.31 28.31 0 01-1.2.181v-1.95zm2-.307c.425-.082.826-.173 1.2-.273v1.905c-.356.101-.758.2-1.2.292v-1.924zm-13.6 0v1.924c-.442-.092-.844-.19-1.2-.292V17.76c.374.1.775.19 1.2.273zm.8.141c.387.062.788.117 1.2.166v1.95a28.308 28.308 0 01-1.2-.18v-1.936zm2 .251c.394.038.794.07 1.2.096v1.966a35.43 35.43 0 01-1.2-.104v-1.958zm-.992-2.357l-.122-.013c-.029-.002-.057-.006-.086-.009V14.09c.394.037.794.07 1.2.096v1.964c-.336-.023-.668-.05-.992-.081zM6 14.004v1.95a28.314 28.314 0 01-1.2-.18v-1.936c.387.062.788.118 1.2.166zm7.866 2.128l-.266.02v-1.967c.406-.026.806-.058 1.2-.096v1.958a32.727 32.727 0 01-.934.085zm1.734-.178v-1.95c.412-.049.813-.104 1.2-.166v1.936c-.377.065-.777.126-1.2.18zm2-2.257a18.11 18.11 0 001.2-.272v1.904c-.356.102-.758.2-1.2.292v-1.924zm-5.47-1.8a38.666 38.666 0 01-.93-.036V9.893c.4.019.804.03 1.206.038l.064.001.33.005v1.968c-.195-.002-.392-.002-.582-.007l-.088-.002zM2.8 6.261V4.357c.374.1.775.19 1.2.273v1.924l-.148-.03A17.09 17.09 0 012.8 6.261zm7.27-1.06l.33.004v1.968a40.23 40.23 0 01-1.6-.045V5.162a42.203 42.203 0 001.27.04zm1.524-.002c.402-.008.805-.02 1.206-.038V7.13l-.202.011h-.017c-.268.013-.542.021-.819.028l-.13.002c-.142.003-.288.004-.432.005v-1.97c.11 0 .22-.002.33-.004l.064-.001zm9.114.198l-.01-.003-.146.112c-.212.162-.536.326-.952.485V4.116a6 6 0 001.2-.542v1.631c0 .06-.032.125-.092.193zM15.6 6.884V4.937a29.87 29.87 0 001.2-.167v1.933c-.38.066-.778.127-1.2.181zm2-.333V4.63c.425-.083.826-.173 1.2-.273v1.9a16.55 16.55 0 01-1.2.294zm-2.8-1.53v1.956a36.2 36.2 0 01-1.2.105V5.118c.406-.027.806-.059 1.2-.096zm-8 1.957V5.022c.394.037.794.07 1.2.096V7.08a36.616 36.616 0 01-1.2-.102zM6 4.937v1.948c-.08-.01-.162-.019-.24-.03l-.15-.021a29.166 29.166 0 01-.68-.105l-.13-.023V4.771c.387.061.788.117 1.2.166zm4.3 6.87l-.161-.012c-.256-.02-.506-.041-.75-.065l-.157-.016-.032-.004V9.753c.394.037.794.07 1.2.096v1.964l-.1-.006zm-2.642-.294c-.158-.025-.307-.052-.458-.078V9.502c.387.061.788.117 1.2.166v1.95a30.795 30.795 0 01-.742-.105zM6.4 9.36v1.922a16.983 16.983 0 01-1.2-.296V9.088c.374.1.775.19 1.2.272zm-2-.513v1.873c-.629-.24-1.034-.484-1.166-.701l-.027-.044c-.003-.013-.007-.026-.007-.038V8.305a6 6 0 001.2.542zm9.594 1.084c.402-.008.805-.02 1.206-.038v1.967c-.526.025-1.06.04-1.6.045V9.937l.33-.005.064-.001zm5.169 1.513a25.822 25.822 0 01-.853.132l-.31.04V9.668c.413-.05.813-.105 1.2-.167v1.936a1.502 1.502 0 01-.037.007zm-2.709.336c-.149.013-.303.02-.454.031V9.848c.406-.026.806-.057 1.2-.095v1.956c-.232.024-.464.048-.703.067l-.043.004zm4.572-.739a16.405 16.405 0 01-.93.224l-.096.02V9.36a17.95 17.95 0 001.2-.273v1.905l-.174.048zm2.17-3.836c-.037.267-.653.623-1.752.958-1.415.431-3.63.826-6.436.948-.143.006-.286.012-.433.016l-.361.011a44.736 44.736 0 01-2.027 0l-.362-.01-.433-.017c-2.807-.123-5.022-.517-6.436-.948-1.09-.332-1.705-.685-1.75-.952.002-.007.002-.014.006-.023l.086.019a27.54 27.54 0 003.094.519l.008.001h.002c.64.072 1.302.128 1.983.168l.015.002.008-.001a41.561 41.561 0 003.034.065c2.907-.044 5.6-.385 7.475-.912.086-.024.17-.05.254-.074l.152-.046c.145-.046.283-.093.417-.141l.069-.026a9.63 9.63 0 00.326-.13l.09-.04c.11-.049.218-.1.317-.152.045-.023.084-.047.125-.07l.14-.083c.026-.016.056-.031.08-.047 1.791.383 2.263.801 2.309.965zM10.8.87c6.596 0 9.932 1.024 9.994 1.611-.048.267-.662.619-1.75.95-1.415.43-3.63.825-6.436.948l-.433.016c-.12.004-.24.008-.361.01a44.489 44.489 0 01-2.028 0 21.448 21.448 0 01-.361-.01c-.147-.004-.29-.01-.433-.016-2.807-.123-5.022-.517-6.436-.948C1.468 3.1.854 2.748.806 2.482.868 1.895 4.204.872 10.8.872zM.8 5.206V3.574a6 6 0 001.2.542v1.888C1.222 5.716.8 5.428.8 5.206zm1.938 5.456c.006.006.015.012.02.018.548.545 1.682.973 3.094 1.293l.1.022c.103.023.208.045.315.067 1.296.272 2.844.469 4.53.566h.004a40.969 40.969 0 003.246.06c.523-.01 1.039-.031 1.547-.06h.006l.01-.001c1.69-.098 3.276-.297 4.618-.583a7.26 7.26 0 01-1.184.456c-1.494.455-3.88.87-6.912.965l-.27.009-.297.005a44.554 44.554 0 01-1.778-.005 29.04 29.04 0 01-.795-.027c-2.807-.122-5.022-.517-6.436-.948-1.1-.335-1.716-.691-1.752-.959.045-.148.45-.519 1.934-.878zM.8 14.274V12.64c.32.199.724.38 1.2.543v1.88l-.228-.088-.005.005c-.628-.256-.966-.508-.967-.707zM2 18.61v-1.633a6 6 0 001.2.543v1.887c-.778-.287-1.2-.575-1.2-.797zm18.8.797V17.52c.476-.163.88-.344 1.2-.543v1.632c0 .222-.422.51-1.2.798zm1.195-3.525c-.044.267-.658.62-1.75.954-1.416.43-3.63.825-6.437.947l-.433.017-.361.01a44.057 44.057 0 01-2.028 0l-.358-.01-.436-.017c-2.807-.122-5.021-.517-6.436-.948-1.058-.322-1.67-.664-1.746-.928a11.866 11.866 0 00.869.261l.195.05c1.457.368 3.316.628 5.324.745h.003a40.717 40.717 0 003.073.065c.584-.01 1.16-.031 1.723-.064h.009c.686-.041 1.35-.1 1.988-.171h.006c.01 0 .016-.004.025-.004a29.4 29.4 0 002.39-.368l.085-.017c1.18-.24 2.203-.549 2.905-.932.038-.02.074-.042.11-.063.045-.026.087-.052.129-.08.038-.024.082-.047.118-.072.79.278 1.007.526 1.033.625zM22 10.735V8.848c.476-.164.88-.345 1.2-.543v1.631c0 .222-.422.511-1.2.799z" fill="#000"/></svg>