<svg width="24" height="34" fill="none" xmlns="http://www.w3.org/2000/svg"><path d="M12 29.02C5.383 29.02 0 23.628 0 17 0 10.372 5.383 4.98 12 4.98S24 10.372 24 17c0 6.628-5.383 12.02-12 12.02zm0-23.312C5.784 5.708.727 10.774.727 17c0 6.227 5.057 11.292 11.273 11.292 6.216 0 11.273-5.066 11.273-11.292S18.216 5.708 12 5.708z" fill="#000"/><path d="M12 29.02a11.9 11.9 0 01-6.945-2.229.364.364 0 01.084-.638c3.016-1.118 3.502-2.026 3.502-3.766 0-.46-.103-.61-.289-.884-.247-.36-.584-.853-.821-2.141-.035-.185-.065-.2-.23-.28-.44-.213-.846-.519-.952-1.915 0-.676.233-1.05.426-1.244-.043-.24-.112-.655-.176-1.106-.33-2.023-.344-4.501 2.496-5.653 2.476-1.005 4.452-.456 5.072.2.44.013 1.573.128 2.361 1.047 1.213 1.413.827 4.635.695 5.509.193.19.428.558.428 1.22-.106 1.423-.511 1.73-.953 1.942-.166.08-.195.094-.23.28-.237 1.288-.573 1.781-.82 2.14-.187.274-.29.426-.29.885 0 1.74.487 2.648 3.502 3.766a.366.366 0 01.084.638A11.9 11.9 0 0112 29.021zm-5.951-2.44a11.158 11.158 0 005.95 1.712c2.118 0 4.162-.59 5.952-1.712-2.526-1.038-3.32-2.086-3.32-4.192 0-.686.202-.982.417-1.296.221-.323.496-.726.706-1.862.101-.55.419-.702.63-.804.225-.108.458-.22.54-1.313 0-.557-.25-.708-.26-.714a.388.388 0 01-.192-.391c.18-.968.477-3.988-.495-5.122-.664-.774-1.71-.795-1.91-.787-.034-.003-.066-.004-.098-.012-.094-.024-.254-.106-.303-.19-.198-.34-1.92-1.023-4.298-.059-2.35.953-2.355 2.996-2.05 4.868.1.697.21 1.3.21 1.302a.364.364 0 01-.205.397c.002 0-.247.152-.247.734.082 1.064.315 1.177.54 1.286.21.101.53.254.63.803.21 1.137.485 1.539.706 1.862.215.314.417.611.417 1.297 0 2.108-.793 3.155-3.32 4.194z" fill="#000"/></svg>