<svg width="20" height="19" fill="none" xmlns="http://www.w3.org/2000/svg"><g clip-path="url(#clip0)" fill="#fff" fill-opacity=".5"><path d="M10.481 1.712c2.537 0 2.837.01 3.839.055.926.042 1.43.197 1.764.327.443.172.76.378 1.092.71.333.333.539.65.71 1.093.13.335.286.838.328 1.764.046 1.002.055 1.302.055 3.839s-.01 2.837-.055 3.839c-.042.926-.197 1.43-.327 1.764-.172.443-.378.76-.71 1.092a2.944 2.944 0 01-1.093.71c-.335.13-.838.286-1.764.328-1.002.045-1.302.055-3.839.055s-2.837-.01-3.839-.055c-.926-.042-1.43-.197-1.764-.327a2.943 2.943 0 01-1.092-.71 2.944 2.944 0 01-.71-1.093c-.13-.335-.286-.838-.328-1.764-.045-1.002-.055-1.303-.055-3.84 0-2.536.01-2.836.055-3.838.042-.926.197-1.43.327-1.764.173-.443.378-.76.71-1.092a2.944 2.944 0 011.093-.71c.335-.131.838-.286 1.764-.328 1.002-.046 1.302-.055 3.839-.055zm0-1.712c-2.58 0-2.904.011-3.917.057C5.553.103 4.862.264 4.258.5a4.655 4.655 0 00-1.683 1.096A4.658 4.658 0 001.48 3.277c-.235.604-.396 1.295-.442 2.306C.992 6.596.981 6.92.981 9.5s.01 2.904.057 3.917c.046 1.011.207 1.702.442 2.306a4.657 4.657 0 001.095 1.683A4.658 4.658 0 004.258 18.5c.604.235 1.295.396 2.306.442 1.013.046 1.337.057 3.917.057s2.904-.01 3.917-.057c1.011-.046 1.702-.207 2.306-.442a4.658 4.658 0 001.683-1.095 4.656 4.656 0 001.095-1.683c.235-.604.396-1.295.442-2.306.046-1.013.057-1.337.057-3.917s-.01-2.903-.057-3.917c-.046-1.011-.207-1.702-.442-2.306a4.656 4.656 0 00-1.095-1.682A4.657 4.657 0 0016.704.499C16.1.264 15.409.103 14.398.057 13.385.011 13.06 0 10.48 0z"/><path d="M10.481 4.622a4.878 4.878 0 100 9.757 4.878 4.878 0 000-9.757zm0 8.045a3.167 3.167 0 110-6.333 3.167 3.167 0 010 6.333zm5.071-7.097a1.14 1.14 0 100-2.28 1.14 1.14 0 000 2.28z"/></g><defs><clipPath id="clip0"><path fill="#fff" transform="translate(.981)" d="M0 0h19v19H0z"/></clipPath></defs></svg>