<svg width="28" height="16" fill="none" xmlns="http://www.w3.org/2000/svg"><path fill-rule="evenodd" clip-rule="evenodd" d="M13.83 15.772h1.57s.474-.052.716-.313c.223-.24.215-.69.215-.69s-.03-2.106.947-2.416c.964-.306 2.202 2.035 3.513 2.936.992.68 1.746.531 1.746.531l3.507-.048s1.834-.113.964-1.556c-.07-.118-.506-1.067-2.607-3.017-2.2-2.041-1.905-1.711.744-5.242 1.614-2.15 2.259-3.462 2.057-4.025-.192-.535-1.379-.394-1.379-.394l-3.948.025s-.293-.04-.51.09c-.212.127-.349.424-.349.424s-.625 1.664-1.458 3.079c-1.759 2.985-2.462 3.143-2.75 2.958-.668-.433-.5-1.736-.5-2.663 0-2.893.438-4.1-.855-4.412-.43-.104-.745-.172-1.843-.183-1.41-.015-2.602.004-3.277.335-.45.22-.796.71-.585.738.261.035.852.16 1.166.587.404.55.39 1.786.39 1.786s.233 3.407-.543 3.83c-.532.29-1.262-.303-2.83-3.011a25.181 25.181 0 01-1.41-2.922s-.117-.286-.325-.44c-.253-.185-.607-.245-.607-.245l-3.752.025s-.564.016-.77.26c-.184.218-.015.67-.015.67S3.99 9.34 7.316 12.804c3.05 3.175 6.514 2.967 6.514 2.967z" fill="#fff" fill-opacity=".5"/></svg>