<svg width="21" height="20" fill="none" xmlns="http://www.w3.org/2000/svg"><g clip-path="url(#clip0)" fill="#fff"><path d="M20.472 13.28a.51.51 0 00-.51.508v1.946a2.039 2.039 0 01-2.036 2.036H4.036a2.039 2.039 0 01-2.037-2.036v-1.946a.51.51 0 00-1.018 0v1.946a3.058 3.058 0 003.055 3.055h13.89a3.058 3.058 0 003.055-3.055v-1.946a.51.51 0 00-.51-.509z"/><path d="M17.38 15.285H4.582a.51.51 0 000 1.018h12.8a.51.51 0 100-1.018zm-1.246-7.163a.51.51 0 00-.719-.04l-3.925 3.506V1.721a.51.51 0 10-1.018 0v9.867L6.547 8.082a.51.51 0 00-.679.76l4.265 3.809a1.27 1.27 0 001.696 0l4.264-3.81a.51.51 0 00.04-.719z"/></g><defs><clipPath id="clip0"><path fill="#fff" transform="translate(.981)" d="M0 0h20v20H0z"/></clipPath></defs></svg>