<svg width="106" height="98" viewBox="0 0 106 98" fill="none" xmlns="http://www.w3.org/2000/svg">
<path d="M5.21311 98C2.34221 97.9969 0.0032582 95.7612 0 93.0159V44.8475C0.0032582 42.1032 2.34221 39.8675 5.21398 39.8644H25.3568L24.9096 38.7391C23.3706 34.8652 22.5902 31.6112 22.5902 29.0678C22.5902 13.0398 36.232 0 53 0C69.768 0 83.4098 13.0398 83.4098 29.0678C83.4098 31.6114 82.6294 34.8654 81.09 38.7391L80.6428 39.8644H100.787C103.658 39.8675 105.997 42.1032 106 44.8483V93.017C105.997 95.7612 103.658 97.9969 100.786 98H100.787H5.21311ZM5.21246 41.5254C3.29795 41.5269 1.73923 43.0168 1.7377 44.8468V58.3166L8.03015 59.8217C8.41788 59.9141 8.68831 60.2455 8.68852 60.6273V77.2373C8.68852 77.6189 8.41788 77.9503 8.03059 78.0427L1.7377 79.5478V93.017C1.73923 94.8474 3.29795 96.3373 5.21246 96.339H100.787C102.702 96.3373 104.261 94.8474 104.262 93.0178V44.8475C104.261 43.0168 102.702 41.5269 100.788 41.5254H79.9012L79.6722 42.0196C73.367 55.6291 60.8998 71.9935 55.8325 78.3973L54.7788 79.7288H84.2787C84.7579 79.7288 85.1475 80.1013 85.1475 80.5593C85.1475 81.0173 84.7579 81.3898 84.2787 81.3898H21.7213C21.2421 81.3898 20.8525 81.0173 20.8525 80.5593C20.8525 80.1013 21.2421 79.7288 21.7213 79.7288H51.2212L50.1675 78.3973C45.1004 71.9937 32.6334 55.6304 26.3277 42.0196L26.0988 41.5254H5.21246ZM27.4703 40.4005C29.9287 45.9045 33.7892 52.5627 38.9441 60.1892C44.2682 68.0647 49.6028 74.942 52.3086 78.3404L53 79.2087L53.6914 78.3404C56.3974 74.942 61.732 68.0647 67.0556 60.1892C72.2105 52.5629 76.0706 45.9055 78.5286 40.4026L78.5486 40.3604C80.6213 35.7135 81.6721 31.9142 81.6721 29.0678C81.6545 13.9723 68.7927 1.67804 53.0009 1.66102H52.9989C37.2075 1.67804 24.3457 13.9723 24.3279 29.067C24.3279 31.9139 25.3787 35.7135 27.4514 40.3604C27.4514 40.3604 27.4692 40.398 27.4703 40.4005ZM1.7377 77.8338L6.95082 76.588V61.2764L1.7377 60.0306V77.8338Z" fill="white"/>
<path d="M99.918 74.7458C99.4389 74.7458 99.0492 74.3733 99.0492 73.9153V63.9492C99.0492 63.4911 99.4389 63.1187 99.918 63.1187C100.397 63.1187 100.787 63.4911 100.787 63.9492V73.9153C100.787 74.3733 100.397 74.7458 99.918 74.7458Z" fill="white"/>
<path d="M53.0009 34.8814C47.7363 34.8757 43.4485 30.777 43.4426 25.7449C43.4426 20.7083 47.73 16.6102 53 16.6102C58.27 16.6102 62.5574 20.7083 62.5574 25.7458C62.5574 30.7828 58.2705 34.8809 53.0009 34.8814ZM52.9991 18.2712C48.6927 18.2758 45.1853 21.6285 45.1803 25.7449C45.1803 29.8674 48.6881 33.2203 53 33.2203C57.3119 33.2203 60.8197 29.8674 60.8197 25.7458C60.8197 21.6242 57.3119 18.2712 53 18.2712H52.9991Z" fill="white"/>
<path d="M89.4918 81.3899C89.0126 81.3899 88.6229 81.0174 88.6229 80.5594C88.6229 80.1014 89.0126 79.7289 89.4918 79.7289H91.2295C91.7087 79.7289 92.0983 80.1014 92.0983 80.5594C92.0983 81.0174 91.7087 81.3899 91.2295 81.3899H89.4918Z" fill="white"/>
</svg>
