<svg width="90" height="90" viewBox="0 0 90 90" fill="none" xmlns="http://www.w3.org/2000/svg">
<path d="M3.82291 90C2.65066 89.9951 1.52432 89.4332 0.81299 88.4972L0.793555 88.4716L0.759319 88.4336L0.747359 88.4178C0.267309 87.773 0.00194352 86.9749 0 86.1708V34.4003C0.00732558 34.3653 0.0134551 34.3263 0.0162957 34.2831C0.0215282 34.2375 0.0312458 34.1925 0.045 34.1491L0.0544186 34.12L0.0612957 34.0901C0.0701163 34.0524 0.0814784 34.0156 0.0955316 33.9806C0.112276 33.9509 0.131711 33.9223 0.153538 33.8954L0.172375 33.8723L0.189269 33.8476C0.216628 33.8077 0.248173 33.7707 0.282857 33.7377C0.313953 33.7091 0.339817 33.681 0.360598 33.6565L15.2451 22.0928V9.92169C15.2451 7.81114 16.9622 6.09409 19.0727 6.09409H35.8551L42.676 0.799249C43.3371 0.28346 44.1614 0 44.9984 0C45.8353 0 46.6596 0.28346 47.3195 0.798203L54.1402 6.09409H70.9227C73.0332 6.09409 74.7502 7.81114 74.7502 9.92169V22.0927L89.6391 33.6561C89.66 33.6809 89.6859 33.709 89.717 33.7376C89.7521 33.771 89.7835 33.8078 89.8104 33.8471L89.8275 33.872L89.8463 33.8953C89.8678 33.9217 89.8871 33.9503 89.9042 33.9802C89.9185 34.0164 89.93 34.0532 89.9386 34.0899L89.9454 34.1194L89.9547 34.1481C89.9695 34.1946 89.9794 34.2429 89.9842 34.2921C89.9874 34.3339 89.9936 34.3712 90 34.4024V86.1725C89.9982 86.9748 89.733 87.7727 89.2528 88.4179L89.2404 88.4348C89.2296 88.4466 89.2187 88.4591 89.2081 88.4724L89.1936 88.4908C88.4811 89.4323 87.351 89.9964 86.1702 90H86.1725H3.82291ZM44.9924 55.6586C44.4956 55.6584 44.0076 55.8286 43.6183 56.1372L2.0262 88.445H87.9695L46.3605 56.1325C45.9771 55.8284 45.4892 55.6586 44.9924 55.6586ZM44.9984 54.1082C45.8353 54.1082 46.6598 54.3915 47.3198 54.9058L88.445 86.847L88.4447 35.1176L62.2044 55.4932C62.0608 55.6073 61.8892 55.6671 61.7143 55.6671C61.6143 55.6671 61.5165 55.6481 61.4235 55.6106C61.1644 55.5061 60.9805 55.2693 60.9436 54.9923C60.9067 54.7154 61.0219 54.4388 61.2447 54.2702L87.444 33.9255L74.7496 24.0603V37.3717C74.7496 37.8003 74.4008 38.1491 73.9722 38.1491C73.5436 38.1491 73.1948 37.8003 73.1948 37.3717V9.92139C73.1948 8.6684 72.1755 7.64893 70.9224 7.64893H19.0725C17.8196 7.64893 16.8001 8.6684 16.8001 9.92139V37.3717C16.8001 37.8003 16.4513 38.1491 16.0227 38.1491C15.5941 38.1491 15.2453 37.8003 15.2453 37.3717V24.0603L2.55095 33.9255L28.6991 54.2295C29.0385 54.4928 29.1004 54.9824 28.8375 55.3216C28.6891 55.513 28.4645 55.623 28.2217 55.623C28.0483 55.623 27.8837 55.5665 27.7459 55.4596L1.55033 35.1175V86.847L42.676 54.9066C43.3369 54.3915 44.1614 54.1082 44.9984 54.1082ZM44.9922 1.55021C44.495 1.55021 44.0069 1.72064 43.6176 2.02982L38.3982 6.09379H51.6017L46.3602 2.02459C45.9776 1.72049 45.4893 1.55021 44.9922 1.55021Z" fill="white"/>
<path d="M44.9976 47.2994C35.3191 47.2994 27.4452 39.4253 27.4452 29.7467C27.4452 20.0681 35.3193 12.194 44.9976 12.194C54.676 12.194 62.55 20.0681 62.55 29.7467V35.8466C62.5589 38.6957 60.339 41.0437 57.4961 41.1944C57.4001 41.1995 57.305 41.202 57.2099 41.202C57.2099 41.202 57.2098 41.202 57.2096 41.202C54.4676 41.202 52.1877 39.1431 51.9065 36.4127L51.754 34.9324L50.6574 35.9384C49.1032 37.3646 47.0851 38.1499 44.9747 38.1499C43.4165 38.1499 41.8912 37.7168 40.5637 36.8974C37.3785 34.9314 35.8705 31.0441 36.8964 27.4442C37.9197 23.8528 41.2425 21.3446 44.977 21.3446H44.9958C45.4261 21.3446 45.7748 21.6934 45.7748 22.122C45.7748 22.5506 45.4261 22.8994 44.9974 22.8994C41.2218 22.8994 38.1501 25.9711 38.1501 29.747C38.1501 33.5229 41.2218 36.5946 44.9974 36.5946C48.7731 36.5946 51.8449 33.5229 51.8449 29.747C51.8449 29.3184 52.1937 28.9696 52.6223 28.9696C53.0509 28.9696 53.3997 29.3184 53.3997 29.747V35.8471C53.3997 37.941 55.1033 39.6446 57.1972 39.6446C59.2911 39.6446 60.9947 37.941 60.9947 35.8471V29.747C60.9947 20.9258 53.8183 13.7493 44.9973 13.7493C36.1762 13.7493 28.9999 20.9258 28.9999 29.747C28.9999 38.5682 36.1762 45.7447 44.9973 45.7447C45.4259 45.7447 45.7747 46.0934 45.7747 46.522C45.7747 46.9506 45.4264 47.2994 44.9976 47.2994Z" fill="white"/>
</svg>
