<svg width="98" height="89" viewBox="0 0 98 89" fill="none" xmlns="http://www.w3.org/2000/svg">
<g clip-path="url(#clip0)">
<path d="M19.9362 88.9997C26.3224 88.9997 33.3108 87.2531 40.7106 83.8089C49.824 79.5671 59.6253 72.7111 69.8424 63.4319C97.6922 38.134 99.9866 21.0704 97.0072 11.2108C96.2309 8.69883 94.4365 6.58382 91.956 5.25922L83.5175 0.655129C82.7324 0.226508 81.836 0 80.9249 0C79.2303 0 77.6593 0.764096 76.7223 2.04419L63.2746 20.3594C61.8301 22.3457 62.3153 25.0552 64.3812 26.5253L71.9259 31.8571C73.2308 32.7627 73.6084 34.4325 72.7992 35.7376L72.1912 36.7451C70.1454 40.1479 67.5985 44.3841 58.2308 52.8956C48.8592 61.4106 44.1948 63.7196 40.4472 65.575L39.3333 66.1327C38.8428 66.3802 38.2853 66.5117 37.7229 66.5117C36.6882 66.5115 35.6975 66.065 35.0728 65.3167L29.2052 58.4646C28.2388 57.3438 26.7822 56.7 25.2102 56.7C24.2151 56.7 23.2488 56.9645 22.416 57.4648L2.25455 69.677C0.00292969 71.0367 -0.668228 73.749 0.725525 75.8523L5.79557 83.5061C7.25736 85.7666 9.58598 87.3964 12.3569 88.1017C14.7822 88.6972 17.2938 89.0002 19.8138 89.0002C19.8136 89 19.9362 88.9997 19.9362 88.9997ZM80.9208 1.54372C81.5283 1.54372 82.1257 1.69467 82.6479 1.98017L91.079 6.57406C93.1779 7.68827 94.7056 9.4786 95.3727 11.6109C98.2359 21.0842 95.9211 37.5696 68.6448 62.3439C50.2842 79.0202 33.9186 87.4757 20.0026 87.4757C17.4917 87.4757 15.0667 87.1885 12.7952 86.6221C10.4432 86.0153 8.47432 84.6292 7.24433 82.7175L2.19073 75.0665C1.26287 73.6678 1.70938 71.8633 3.20861 70.9596L23.3695 58.7467C23.9257 58.4133 24.5674 58.2381 25.2286 58.2381C26.2712 58.2381 27.2382 58.6648 27.8813 59.4089L33.7554 66.2679C34.713 67.4051 36.1608 68.0548 37.7321 68.0548C38.5833 68.0548 39.4271 67.8543 40.1723 67.4746L41.2681 66.9262C45.1181 65.019 49.9007 62.6495 59.445 53.9823C68.9886 45.3154 71.5974 40.9701 73.6934 37.4784L74.2968 36.4825C75.5083 34.52 74.9395 32.016 72.9767 30.6527L65.4227 25.3157C64.0491 24.3372 63.728 22.5382 64.689 21.2181L70.8217 12.8638L78.1261 2.90321C78.7489 2.05218 79.7938 1.54372 80.9208 1.54372Z" fill="white"/>
<path d="M12.4792 40.7484C12.9458 40.7484 13.3254 40.4036 13.3254 39.9799C13.3433 25.4535 26.3685 13.6231 42.3609 13.6069C42.8284 13.6069 43.2078 13.2621 43.2078 12.8384C43.2078 12.4146 42.8284 12.0698 42.3618 12.0698C34.1582 12.078 26.4449 14.9844 20.6435 20.2537C14.842 25.523 11.642 32.5288 11.6329 39.9806C11.6329 40.4036 12.0125 40.7484 12.4792 40.7484Z" fill="white"/>
<path d="M22.4401 40.7484C22.9066 40.7484 23.2861 40.4036 23.2861 39.9799C23.2984 30.4372 31.8555 22.6653 42.3609 22.6541C42.8284 22.6541 43.2078 22.3093 43.2078 21.8855C43.2078 21.4618 42.8284 21.117 42.3618 21.117C30.924 21.129 21.6073 29.5911 21.5939 39.9807C21.5939 40.4036 21.9735 40.7484 22.4401 40.7484Z" fill="white"/>
<path d="M32.4008 40.7485C32.8673 40.7485 33.2469 40.4037 33.2469 39.9799C33.2529 35.4201 37.3414 31.7066 42.3607 31.7013C42.8282 31.7013 43.2076 31.3565 43.2076 30.9328C43.2076 30.509 42.8282 30.1642 42.3617 30.1642C36.4098 30.1703 31.5615 34.5741 31.5545 39.9808C31.5546 40.4037 31.9342 40.7485 32.4008 40.7485Z" fill="white"/>
</g>
<defs>
<clipPath id="clip0">
<rect width="98" height="89" fill="white" transform="matrix(-1 0 0 1 98 0)"/>
</clipPath>
</defs>
</svg>
