<svg width="21" height="20" viewBox="0 0 21 20" fill="none" xmlns="http://www.w3.org/2000/svg">
<g clip-path="url(#clip0)">
<path d="M20.4718 13.2793C20.1907 13.2793 19.9627 13.5073 19.9627 13.7884V15.7339C19.9627 16.8568 19.0491 17.7704 17.9262 17.7704H4.03576C2.91283 17.7704 1.99924 16.8568 1.99924 15.7339V13.7884C1.99924 13.5073 1.77131 13.2793 1.4901 13.2793C1.20889 13.2793 0.980957 13.5073 0.980957 13.7884V15.7339C0.980957 17.4183 2.35135 18.7887 4.03576 18.7887H17.9262C19.6106 18.7887 20.981 17.4183 20.981 15.7339V13.7884C20.981 13.5073 20.753 13.2793 20.4718 13.2793Z" fill="white"/>
<path d="M17.3809 15.2852H4.58141C4.30027 15.2852 4.07227 15.5132 4.07227 15.7943C4.07227 16.0754 4.3002 16.3034 4.58141 16.3034H17.3808C17.662 16.3034 17.89 16.0755 17.89 15.7943C17.89 15.5132 17.662 15.2852 17.3809 15.2852Z" fill="white"/>
<path d="M16.1339 8.12221C15.9466 7.91256 15.6248 7.89432 15.415 8.08166L11.4899 11.5881V1.72057C11.4899 1.43943 11.262 1.21143 10.9808 1.21143C10.6996 1.21143 10.4716 1.43936 10.4716 1.72057V11.5881L6.54656 8.0817C6.33691 7.89435 6.01504 7.91264 5.82766 8.12225C5.64039 8.33197 5.65848 8.65385 5.86816 8.84115L10.1328 12.6508C10.3745 12.8668 10.6775 12.9747 10.9807 12.9747C11.2838 12.9747 11.587 12.8668 11.8287 12.6509L16.0933 8.84115C16.3031 8.65373 16.3212 8.33185 16.1339 8.12221Z" fill="white"/>
</g>
<defs>
<clipPath id="clip0">
<rect width="20" height="20" fill="white" transform="translate(0.980957)"/>
</clipPath>
</defs>
</svg>
