<svg width="106" height="98" fill="none" xmlns="http://www.w3.org/2000/svg"><path d="M5.213 98C2.343 97.997.003 95.761 0 93.016V44.847c.003-2.744 2.342-4.98 5.214-4.983h20.143l-.447-1.125c-1.54-3.874-2.32-7.128-2.32-9.671C22.59 13.04 36.232 0 53 0s30.41 13.04 30.41 29.068c0 2.543-.78 5.797-2.32 9.671l-.447 1.125h20.144c2.871.004 5.21 2.24 5.213 4.984v48.169c-.003 2.744-2.342 4.98-5.214 4.983h.001H5.213zm0-56.475c-1.915.002-3.474 1.492-3.475 3.322v13.47l6.292 1.505a.837.837 0 01.659.805v16.61a.838.838 0 01-.658.806l-6.293 1.505v13.469c.001 1.83 1.56 3.32 3.474 3.322h95.575c1.915-.002 3.474-1.492 3.475-3.321v-48.17c-.001-1.831-1.56-3.321-3.474-3.323H79.901l-.229.495C73.367 55.63 60.9 71.993 55.832 78.397L54.78 79.73h29.5c.479 0 .868.372.868.83 0 .458-.39.83-.868.83H21.72c-.479 0-.869-.372-.869-.83 0-.458.39-.83.87-.83h29.5l-1.055-1.332C45.1 71.994 32.633 55.63 26.327 42.02l-.228-.495H5.212zm22.257-1.124c2.459 5.503 6.32 12.162 11.474 19.788 5.324 7.876 10.659 14.753 13.365 18.151l.691.869.691-.869c2.706-3.398 8.041-10.275 13.365-18.15 5.154-7.627 9.015-14.284 11.473-19.787l.02-.043c2.072-4.646 3.123-8.446 3.123-11.292-.017-15.096-12.88-27.39-28.671-27.407h-.002c-15.791.017-28.653 12.311-28.671 27.406 0 2.847 1.05 6.647 3.123 11.293l.02.04zM1.738 77.834l5.213-1.246V61.276l-5.213-1.245v17.803z" fill="#fff"/><path d="M99.918 74.746c-.48 0-.869-.373-.869-.83v-9.967c0-.458.39-.83.869-.83s.869.372.869.83v9.966c0 .458-.39.83-.869.83zM53 34.881c-5.264-.005-9.551-4.104-9.557-9.136 0-5.037 4.287-9.135 9.557-9.135 5.27 0 9.557 4.098 9.557 9.136 0 5.037-4.287 9.135-9.556 9.135zm0-16.61c-4.307.005-7.815 3.357-7.82 7.474 0 4.122 3.508 7.475 7.82 7.475s7.82-3.353 7.82-7.474c0-4.122-3.508-7.475-7.82-7.475zM89.492 81.39c-.48 0-.87-.373-.87-.83 0-.459.39-.831.87-.831h1.737c.48 0 .87.372.87.83 0 .458-.39.83-.87.83h-1.737z" fill="#fff"/></svg>