<svg width="90" height="90" fill="none" xmlns="http://www.w3.org/2000/svg"><path d="M3.823 90a3.826 3.826 0 01-3.01-1.503l-.02-.025-.034-.038-.012-.016A3.804 3.804 0 010 86.17V34.4a.837.837 0 00.016-.118.714.714 0 01.029-.134l.01-.029.006-.03a.758.758 0 01.035-.11.614.614 0 01.058-.085l.018-.023.017-.024a.693.693 0 01.094-.11.91.91 0 00.078-.081l14.884-11.564V9.922a3.832 3.832 0 013.828-3.828h16.782L42.676.8a3.792 3.792 0 012.322-.8c.837 0 1.662.283 2.322.798l6.82 5.296h16.783a3.832 3.832 0 013.827 3.828v12.17l14.89 11.564a.89.89 0 00.077.082.61.61 0 01.093.11l.017.024.02.023a.84.84 0 01.057.085.79.79 0 01.035.11l.006.03.01.028a.699.699 0 01.03.144c.002.042.009.08.015.11v51.77a3.802 3.802 0 01-.747 2.246l-.013.017a.725.725 0 00-.032.037l-.014.019A3.827 3.827 0 0186.17 90h.002-82.35zm41.17-34.341c-.497 0-.985.17-1.375.478L2.026 88.445H87.97L46.36 56.133a2.214 2.214 0 00-1.368-.474zm.005-1.55c.837 0 1.662.282 2.322.797l41.125 31.941v-51.73l-26.24 20.376a.786.786 0 01-.782.118.779.779 0 01-.178-1.34l26.199-20.346L74.75 24.06v13.312a.778.778 0 01-1.555 0V9.922a2.275 2.275 0 00-2.273-2.273h-51.85A2.275 2.275 0 0016.8 9.92v27.45a.778.778 0 01-1.555 0V24.06L2.551 33.924 28.699 54.23a.78.78 0 01-.953 1.23L1.55 35.117v51.73l41.126-31.94a3.795 3.795 0 012.322-.799zM44.992 1.55c-.497 0-.985.17-1.374.48l-5.22 4.064h13.204l-5.242-4.07a2.212 2.212 0 00-1.368-.474z" fill="#fff"/><path d="M44.998 47.3c-9.679 0-17.553-7.875-17.553-17.553 0-9.679 7.874-17.553 17.553-17.553 9.678 0 17.552 7.874 17.552 17.553v6.1a5.333 5.333 0 01-5.34 5.355 5.32 5.32 0 01-5.303-4.79l-.153-1.48-1.097 1.006a8.384 8.384 0 01-5.682 2.212 8.393 8.393 0 01-4.411-1.253 8.434 8.434 0 01-3.668-9.453 8.437 8.437 0 018.081-6.1h.019a.779.779 0 01.001 1.555 6.855 6.855 0 00-6.847 6.848 6.855 6.855 0 006.847 6.848 6.855 6.855 0 006.848-6.848.778.778 0 011.555 0v6.1a3.802 3.802 0 003.797 3.798 3.802 3.802 0 003.798-3.798v-6.1c0-8.821-7.177-15.998-15.998-15.998C36.177 13.75 29 20.926 29 29.747s7.176 15.998 15.997 15.998a.778.778 0 010 1.554z" fill="#fff"/></svg>