<svg width="98" height="89" fill="none" xmlns="http://www.w3.org/2000/svg"><g clip-path="url(#clip0)" fill="#fff"><path d="M19.936 89c6.386 0 13.375-1.747 20.775-5.191 9.113-4.242 18.914-11.098 29.131-20.377C97.692 38.134 99.987 21.07 97.007 11.21c-.776-2.512-2.57-4.627-5.051-5.952L83.517.655A5.423 5.423 0 0080.925 0c-1.695 0-3.266.764-4.203 2.044L63.275 20.36c-1.445 1.987-.96 4.696 1.106 6.166l7.545 5.332c1.305.906 1.682 2.575.873 3.88l-.608 1.008c-2.046 3.403-4.593 7.64-13.96 16.15-9.372 8.516-14.036 10.825-17.784 12.68l-1.114.558a3.593 3.593 0 01-1.61.379c-1.035 0-2.026-.447-2.65-1.195l-5.868-6.852c-.966-1.121-2.423-1.765-3.995-1.765-.995 0-1.961.264-2.794.765L2.255 69.677c-2.252 1.36-2.923 4.072-1.53 6.175l5.07 7.654c1.462 2.26 3.791 3.89 6.562 4.596a31.32 31.32 0 007.58.898zM80.921 1.544c.607 0 1.205.15 1.727.436l8.431 4.594c2.099 1.114 3.627 2.905 4.294 5.037 2.863 9.473.548 25.959-26.728 50.733-18.36 16.676-34.726 25.132-48.642 25.132-2.511 0-4.936-.287-7.208-.854-2.352-.607-4.32-1.993-5.55-3.904L2.19 75.067c-.928-1.4-.482-3.204 1.018-4.107l20.16-12.213a3.61 3.61 0 011.86-.509c1.042 0 2.01.427 2.652 1.17l5.874 6.86c.958 1.137 2.406 1.787 3.977 1.787.851 0 1.695-.2 2.44-.58l1.096-.549c3.85-1.907 8.633-4.276 18.177-12.944 9.544-8.667 12.152-13.012 14.248-16.504l.604-.995c1.211-1.963.642-4.467-1.32-5.83l-7.554-5.337c-1.374-.979-1.695-2.778-.734-4.098l6.133-8.354 7.304-9.96c.623-.852 1.668-1.36 2.795-1.36zM12.48 40.748c.466 0 .845-.344.845-.768.018-14.526 13.044-26.357 29.036-26.373.467 0 .847-.345.847-.769 0-.423-.38-.768-.846-.768-8.204.008-15.917 2.914-21.719 8.184-5.801 5.269-9.001 12.275-9.01 19.727 0 .423.38.767.846.767z"/><path d="M22.44 40.748c.467 0 .846-.344.846-.768.012-9.543 8.57-17.315 19.075-17.326.467 0 .847-.345.847-.768 0-.424-.38-.769-.846-.769-11.438.012-20.755 8.474-20.768 18.864 0 .423.38.767.846.767zm9.96 0c.467 0 .847-.344.847-.768.006-4.56 4.094-8.273 9.114-8.279.467 0 .847-.345.847-.768 0-.424-.38-.769-.846-.769-5.952.006-10.8 4.41-10.808 9.817 0 .423.38.767.847.767z"/></g><defs><clipPath id="clip0"><path fill="#fff" transform="matrix(-1 0 0 1 98 0)" d="M0 0h98v89H0z"/></clipPath></defs></svg>