<svg width="20" height="19" viewBox="0 0 20 19" fill="none" xmlns="http://www.w3.org/2000/svg">
<g clip-path="url(#clip0)">
<path d="M10.481 1.71173C13.0177 1.71173 13.3181 1.72143 14.3198 1.76709C15.246 1.80932 15.7491 1.96418 16.0839 2.09416C16.5273 2.26649 16.8437 2.47238 17.1762 2.8048C17.5086 3.13722 17.7145 3.4537 17.8868 3.8971C18.0169 4.23182 18.1716 4.73492 18.2139 5.66113C18.2595 6.66286 18.2692 6.9634 18.2692 9.49994C18.2692 12.0365 18.2595 12.337 18.2139 13.3387C18.1716 14.265 18.0169 14.7681 17.8868 15.1028C17.7145 15.5462 17.5086 15.8627 17.1762 16.1951C16.8437 16.5275 16.5273 16.7334 16.0839 16.9057C15.7491 17.0358 15.246 17.1906 14.3198 17.2328C13.3182 17.2784 13.0178 17.2881 10.481 17.2881C7.94423 17.2881 7.64382 17.2784 6.64222 17.2328C5.716 17.1906 5.2129 17.0358 4.87818 16.9057C4.43478 16.7334 4.11831 16.5275 3.78588 16.1951C3.45346 15.8627 3.24758 15.5462 3.07524 15.1028C2.94513 14.7681 2.7904 14.265 2.74818 13.3387C2.70251 12.337 2.69282 12.0365 2.69282 9.49994C2.69282 6.9634 2.70251 6.66286 2.74818 5.66113C2.7904 4.73492 2.94526 4.23182 3.07524 3.8971C3.24758 3.4537 3.45346 3.13722 3.78588 2.8048C4.11831 2.47238 4.43478 2.26649 4.87818 2.09416C5.2129 1.96405 5.716 1.80932 6.64222 1.76709C7.64395 1.72143 7.94435 1.71173 10.481 1.71173ZM10.481 0C7.90086 0 7.57736 0.0109702 6.56415 0.0571471C5.55298 0.103324 4.86237 0.263923 4.25811 0.498761C3.63345 0.741509 3.10356 1.06628 2.57546 1.59451C2.04736 2.12273 1.72247 2.65249 1.47972 3.27716C1.24488 3.88141 1.08428 4.57202 1.0381 5.58319C0.991927 6.59641 0.980957 6.9199 0.980957 9.50006C0.980957 12.0801 0.991927 12.4036 1.0381 13.4169C1.08428 14.4281 1.24488 15.1187 1.47972 15.723C1.72247 16.3476 2.04736 16.8775 2.57546 17.4056C3.10356 17.9337 3.63345 18.2586 4.25811 18.5014C4.86237 18.7362 5.55298 18.8968 6.56415 18.943C7.57736 18.9892 7.90098 19.0001 10.481 19.0001C13.0611 19.0001 13.3846 18.9892 14.3979 18.943C15.4091 18.8968 16.0997 18.7362 16.7039 18.5014C17.3286 18.2586 17.8585 17.9337 18.3866 17.4056C18.9147 16.8775 19.2396 16.3476 19.4823 15.723C19.7172 15.1187 19.8778 14.4281 19.9239 13.4169C19.9701 12.4037 19.9811 12.0801 19.9811 9.50006C19.9811 6.92003 19.9701 6.59653 19.9239 5.58319C19.8778 4.57202 19.7172 3.88141 19.4823 3.27716C19.2396 2.65249 18.9147 2.12261 18.3866 1.59451C17.8585 1.06641 17.3286 0.741509 16.7039 0.498761C16.0997 0.263923 15.4091 0.103324 14.3979 0.0571471C13.3846 0.0109702 13.0611 0 10.481 0Z" fill="white" fill-opacity="0.5"/>
<path d="M10.4814 4.62207C7.78724 4.62207 5.60303 6.80616 5.60303 9.50049C5.60303 12.1948 7.78712 14.3789 10.4814 14.3789C13.1758 14.3789 15.3599 12.1948 15.3599 9.50049C15.3599 6.80616 13.1757 4.62207 10.4814 4.62207ZM10.4814 12.6671C8.73259 12.6671 7.31476 11.2493 7.31476 9.50036C7.31476 7.75138 8.73247 6.3338 10.4814 6.3338C12.2304 6.3338 13.6481 7.75151 13.6481 9.50049C13.6481 11.2495 12.2303 12.6671 10.4814 12.6671Z" fill="white" fill-opacity="0.5"/>
<path d="M15.5521 5.56908C16.1817 5.56908 16.6921 5.05868 16.6921 4.42907C16.6921 3.79946 16.1817 3.28906 15.5521 3.28906C14.9225 3.28906 14.4121 3.79946 14.4121 4.42907C14.4121 5.05868 14.9225 5.56908 15.5521 5.56908Z" fill="white" fill-opacity="0.5"/>
</g>
<defs>
<clipPath id="clip0">
<rect width="19" height="19" fill="white" transform="translate(0.980957)"/>
</clipPath>
</defs>
</svg>
