<svg width="28" height="16" viewBox="0 0 28 16" fill="none" xmlns="http://www.w3.org/2000/svg">
<path fill-rule="evenodd" clip-rule="evenodd" d="M13.8297 15.7716H15.3995C15.3995 15.7716 15.8736 15.7196 16.1157 15.4586C16.3385 15.219 16.3314 14.7691 16.3314 14.7691C16.3314 14.7691 16.3007 12.6628 17.2783 12.3526C18.242 12.0471 19.4795 14.3883 20.7911 15.2885C21.7829 15.9699 22.5366 15.8205 22.5366 15.8205L26.0437 15.7716C26.0437 15.7716 27.8784 15.6586 27.0084 14.2161C26.9371 14.0981 26.5018 13.1491 24.4009 11.1989C22.2019 9.15784 22.4963 9.48798 25.1453 5.95737C26.7585 3.80721 27.4035 2.4945 27.202 1.93227C27.0099 1.39678 25.8234 1.53832 25.8234 1.53832L21.8746 1.56292C21.8746 1.56292 21.5819 1.52299 21.3647 1.65276C21.1526 1.78004 21.0161 2.07667 21.0161 2.07667C21.0161 2.07667 20.3911 3.74054 19.5576 5.15556C17.7992 8.14141 17.0961 8.29899 16.8088 8.1136C16.1403 7.6815 16.3072 6.37771 16.3072 5.45147C16.3072 2.55797 16.746 1.35151 15.4526 1.0392C15.0233 0.935448 14.7075 0.866996 13.6097 0.855944C12.2008 0.841327 11.0082 0.860222 10.333 1.19107C9.88376 1.41104 9.53722 1.90126 9.74828 1.92942C10.0093 1.96436 10.6004 2.08879 10.9137 2.51554C11.3184 3.066 11.3041 4.30241 11.3041 4.30241C11.3041 4.30241 11.5366 7.70859 10.7612 8.13178C10.2289 8.42199 9.49872 7.82945 7.93111 5.12062C7.12787 3.73305 6.52143 2.19931 6.52143 2.19931C6.52143 2.19931 6.40449 1.91267 6.19593 1.75936C5.9428 1.57362 5.58913 1.51443 5.58913 1.51443L1.83677 1.53903C1.83677 1.53903 1.27347 1.55472 1.06669 1.79965C0.882725 2.01748 1.05207 2.46812 1.05207 2.46812C1.05207 2.46812 3.98979 9.34109 7.31611 12.8047C10.3661 15.9802 13.8297 15.7716 13.8297 15.7716Z" fill="white" fill-opacity="0.5"/>
</svg>
